<svg width="24" height="26" viewBox="0 0 24 26" fill="none" xmlns="http://www.w3.org/2000/svg">
<path d="M12 2.08929C12.8228 2.08921 13.6144 2.43101 14.2116 3.04428C14.8088 3.65754 15.1661 4.49557 15.21 5.38572L15.2143 5.57144H19.9286C20.0914 5.57149 20.2482 5.63852 20.3672 5.75898C20.4863 5.87945 20.5586 6.04436 20.5697 6.2204C20.5808 6.39644 20.5298 6.57048 20.427 6.70736C20.3243 6.84424 20.1773 6.93374 20.016 6.95779L19.9286 6.96429H19.0208L17.9751 20.9421C17.9099 21.8141 17.544 22.6275 16.9504 23.2206C16.3567 23.8137 15.5787 24.1429 14.7711 24.1429H9.22884C8.42128 24.1429 7.64329 23.8137 7.04962 23.2206C6.45594 22.6275 6.09009 21.8141 6.02484 20.9421L4.97827 6.96429H4.07142C3.91607 6.96429 3.76598 6.90334 3.6489 6.79273C3.53183 6.68211 3.45569 6.52931 3.43456 6.36258L3.42856 6.26787C3.42856 6.09957 3.48482 5.93698 3.58693 5.81014C3.68904 5.68331 3.83008 5.60083 3.98399 5.57794L4.07142 5.57144H8.7857C8.7857 4.64792 9.12435 3.76222 9.72714 3.10919C10.3299 2.45616 11.1475 2.08929 12 2.08929V2.08929ZM17.7317 6.96429H6.26827L7.30627 20.8297C7.34547 21.3529 7.56502 21.841 7.92125 22.1968C8.27749 22.5526 8.7443 22.7501 9.22884 22.75H14.7711C15.2557 22.7501 15.7225 22.5526 16.0787 22.1968C16.435 21.841 16.6545 21.3529 16.6937 20.8297L17.7308 6.96429H17.7317ZM10.0714 10.4464C10.2268 10.4464 10.3769 10.5074 10.4939 10.618C10.611 10.7286 10.6871 10.8814 10.7083 11.0482L10.7143 11.1429V18.5714C10.7142 18.7479 10.6523 18.9177 10.5412 19.0467C10.43 19.1756 10.2777 19.254 10.1152 19.266C9.95273 19.2781 9.79208 19.2228 9.66573 19.1115C9.53938 19.0001 9.45676 18.841 9.43456 18.6662L9.42856 18.5714V11.1429C9.42856 10.9582 9.49629 10.781 9.61685 10.6504C9.73741 10.5198 9.90092 10.4464 10.0714 10.4464V10.4464ZM13.9286 10.4464C14.0839 10.4464 14.234 10.5074 14.3511 10.618C14.4681 10.7286 14.5443 10.8814 14.5654 11.0482L14.5714 11.1429V18.5714C14.5714 18.7479 14.5095 18.9177 14.3983 19.0467C14.2871 19.1756 14.1349 19.254 13.9724 19.266C13.8099 19.2781 13.6492 19.2228 13.5229 19.1115C13.3965 19.0001 13.3139 18.841 13.2917 18.6662L13.2857 18.5714V11.1429C13.2857 10.9582 13.3534 10.781 13.474 10.6504C13.5945 10.5198 13.7581 10.4464 13.9286 10.4464ZM12 3.48215C11.5113 3.48209 11.0408 3.683 10.6836 4.04428C10.3264 4.40556 10.1091 4.90028 10.0757 5.42844L10.0714 5.57144H13.9286L13.9243 5.42844C13.8908 4.90028 13.6735 4.40556 13.3163 4.04428C12.9591 3.683 12.4887 3.48209 12 3.48215V3.48215Z" fill="#FC0000"/>
</svg>
