<svg width="32" height="32" viewBox="0 0 32 32" fill="none" xmlns="http://www.w3.org/2000/svg">
<path d="M27 16.76V16V15.23L28.92 13.55C29.2739 13.238 29.5062 12.811 29.5757 12.3444C29.6453 11.8778 29.5476 11.4016 29.3 11L26.94 6.99999C26.7646 6.69626 26.5125 6.44398 26.2088 6.26846C25.9052 6.09294 25.5607 6.00035 25.21 5.99999C24.9927 5.99833 24.7765 6.03211 24.57 6.09999L22.14 6.91999C21.7205 6.6412 21.2828 6.39065 20.83 6.16999L20.32 3.64999C20.2286 3.1896 19.9781 2.77604 19.6125 2.4817C19.2468 2.18736 18.7893 2.031 18.32 2.03999H13.64C13.1707 2.031 12.7132 2.18736 12.3476 2.4817C11.9819 2.77604 11.7315 3.1896 11.64 3.64999L11.13 6.16999C10.6739 6.39059 10.233 6.64114 9.81001 6.91999L7.43001 6.05999C7.22131 6.00562 7.00518 5.98536 6.79001 5.99999C6.43928 6.00035 6.09482 6.09294 5.79117 6.26846C5.48752 6.44398 5.23537 6.69626 5.06001 6.99999L2.70001 11C2.4666 11.401 2.37986 11.8707 2.45466 12.3286C2.52946 12.7865 2.76113 13.2041 3.11001 13.51L5.00001 15.24V16.77L3.11001 18.45C2.75128 18.758 2.51326 19.1831 2.43821 19.6499C2.36315 20.1168 2.4559 20.5951 2.70001 21L5.06001 25C5.23537 25.3037 5.48752 25.556 5.79117 25.7315C6.09482 25.9071 6.43928 25.9996 6.79001 26C7.00736 26.0017 7.22353 25.9679 7.43001 25.9L9.86001 25.08C10.2795 25.3588 10.7172 25.6093 11.17 25.83L11.68 28.35C11.7715 28.8104 12.0219 29.224 12.3876 29.5183C12.7532 29.8126 13.2107 29.969 13.68 29.96H18.4C18.8693 29.969 19.3268 29.8126 19.6925 29.5183C20.0581 29.224 20.3086 28.8104 20.4 28.35L20.91 25.83C21.3661 25.6094 21.807 25.3588 22.23 25.08L24.65 25.9C24.8565 25.9679 25.0727 26.0017 25.29 26C25.6407 25.9996 25.9852 25.9071 26.2888 25.7315C26.5925 25.556 26.8446 25.3037 27.02 25L29.3 21C29.5334 20.599 29.6202 20.1293 29.5454 19.6714C29.4706 19.2135 29.2389 18.7959 28.89 18.49L27 16.76ZM25.21 24L21.78 22.84C20.9771 23.5201 20.0594 24.0517 19.07 24.41L18.36 28H13.64L12.93 24.45C11.9484 24.0816 11.0357 23.5509 10.23 22.88L6.79001 24L4.43001 20L7.15001 17.6C6.96511 16.5649 6.96511 15.5051 7.15001 14.47L4.43001 12L6.79001 7.99999L10.22 9.15999C11.0229 8.47989 11.9406 7.94825 12.93 7.58999L13.64 3.99999H18.36L19.07 7.54999C20.0516 7.91842 20.9643 8.44914 21.77 9.11999L25.21 7.99999L27.57 12L24.85 14.4C25.0349 15.4351 25.0349 16.4949 24.85 17.53L27.57 20L25.21 24Z" fill="white"/>
<path d="M16 22C14.8133 22 13.6533 21.6481 12.6666 20.9888C11.6799 20.3295 10.9109 19.3925 10.4567 18.2961C10.0026 17.1997 9.88378 15.9933 10.1153 14.8295C10.3468 13.6656 10.9182 12.5965 11.7574 11.7574C12.5965 10.9182 13.6656 10.3468 14.8295 10.1153C15.9933 9.88378 17.1997 10.0026 18.2961 10.4567C19.3925 10.9109 20.3295 11.6799 20.9888 12.6666C21.6481 13.6533 22 14.8133 22 16C22.008 16.7902 21.8583 17.574 21.5596 18.3056C21.2609 19.0371 20.8193 19.7018 20.2605 20.2605C19.7018 20.8193 19.0371 21.2609 18.3056 21.5596C17.574 21.8583 16.7902 22.008 16 22V22ZM16 12C15.4713 11.9877 14.9457 12.0827 14.4548 12.2794C13.9639 12.4761 13.5181 12.7702 13.1442 13.1442C12.7702 13.5181 12.4761 13.9639 12.2794 14.4548C12.0827 14.9457 11.9877 15.4713 12 16C11.9877 16.5287 12.0827 17.0543 12.2794 17.5452C12.4761 18.0361 12.7702 18.4819 13.1442 18.8559C13.5181 19.2298 13.9639 19.524 14.4548 19.7206C14.9457 19.9173 15.4713 20.0123 16 20C16.5287 20.0123 17.0543 19.9173 17.5452 19.7206C18.0361 19.524 18.4819 19.2298 18.8559 18.8559C19.2298 18.4819 19.524 18.0361 19.7206 17.5452C19.9173 17.0543 20.0123 16.5287 20 16C20.0123 15.4713 19.9173 14.9457 19.7206 14.4548C19.524 13.9639 19.2298 13.5181 18.8559 13.1442C18.4819 12.7702 18.0361 12.4761 17.5452 12.2794C17.0543 12.0827 16.5287 11.9877 16 12Z" fill="white"/>
</svg>
